<?xml version="1.0" encoding="UTF-8" standalone="no"?>
<!DOCTYPE svg PUBLIC "-//W3C//DTD SVG 1.1//EN" "http://www.w3.org/Graphics/SVG/1.1/DTD/svg11.dtd">
<svg width="100%" height="100%" viewBox="0 0 512 512" version="1.1" xmlns="http://www.w3.org/2000/svg" xmlns:xlink="http://www.w3.org/1999/xlink" xmlSpace="preserve" xmlnsSerif="http://www.serif.com/" style="fill-rule:evenodd;clip-rule:evenodd;stroke-linejoin:round;stroke-miterlimit:2;">
    <rect id="Artboard1" x="0" y="0" width="512" height="512" style="fill:none;"/>
    <g id="Artboard11" serifId="Artboard1">
        <g id="Layer1">
            <circle cx="256" cy="256" r="256" style="fill:rgb(13,202,242);"/>
        </g>
        <g>
            <g transform="matrix(-1,0,0,1,511.976,0)">
                <g transform="matrix(1.05672,0,0,1.02699,-34.5943,-18.0225)">
                    <ellipse cx="274.995" cy="266.822" rx="213.319" ry="217.11" style="fill:rgb(255,212,121);"/>
                </g>
                <g transform="matrix(1.01756,0,0,0.994643,-23.6763,-16.4148)">
                    <path d="M274.995,49.712C275.023,49.711 275.051,49.711 275.078,49.712C275.262,51.35 274.849,181.921 274.849,181.921L274.081,329.66C274.081,329.66 50.648,326.734 53.32,279.743C60.122,160.122 157.51,57.587 274.995,49.712Z" style="fill:rgb(255,38,0);fill-opacity:0.5;"/>
                </g>
            </g>
            <path d="M217.482,144.589C191.834,125.429 85.371,123.821 61.007,144.589C48.536,155.22 55.17,242.42 80.182,262.403C95.033,274.268 184.824,277.755 217.482,256C219.818,254.444 232.977,156.164 217.482,144.589Z" style="fill:white;"/>
            <path d="M452.789,144.589C426.958,124.128 317.446,127.202 289.454,144.589C279.318,150.884 273.76,237.431 300.982,256C328.205,274.569 410.858,274.569 438.081,256C465.303,237.431 457.142,148.038 452.789,144.589Z" style="fill:white;"/>
            <g transform="matrix(1,0,0,1,-120.124,183.918)">
                <path d="M518.254,114.635C518.254,114.635 349.556,137.436 236.504,114.582C224.809,112.218 240.053,166.715 260.022,171.571C302.169,181.82 446.349,185.568 489.388,176.078C511.486,171.206 518.254,114.635 518.254,114.635Z" style="fill:white;"/>
            </g>
            <path d="M332.554,381.572C288.502,358.784 228.329,358.147 181.765,382.896C168.173,390.12 224.918,399.331 224.918,399.331L290.463,400.696C290.463,400.696 346.242,388.653 332.554,381.572Z" style="fill:rgb(255,106,61);"/>
            <g transform="matrix(4.87502,0,0,8.15324,-783.46,-1988.38)">
                <path d="M213.222,303.23C206.748,303.23 200.686,302.509 195.037,301.066C189.387,299.624 184.419,297.621 180.134,295.059C175.848,292.496 172.498,289.526 170.086,286.148C167.673,282.77 166.467,279.145 166.467,275.274C166.467,273.572 166.714,271.91 167.208,270.288C167.703,268.666 168.415,267.103 169.344,265.597L171.547,268.527C171.067,269.603 170.7,270.705 170.445,271.834C170.191,272.963 170.063,274.11 170.063,275.274C170.063,278.841 171.18,282.183 173.413,285.301C175.645,288.419 178.74,291.161 182.696,293.526C186.652,295.892 191.238,297.742 196.453,299.077C201.668,300.412 207.257,301.08 213.222,301.08C219.186,301.08 224.776,300.412 229.991,299.077C235.206,297.742 239.791,295.892 243.747,293.526C247.704,291.161 250.798,288.419 253.031,285.301C255.264,282.183 256.38,278.841 256.38,275.274C256.38,274.11 256.253,272.963 255.998,271.834C255.743,270.705 255.376,269.603 254.897,268.527L257.1,265.597C258.059,267.103 258.778,268.666 259.257,270.288C259.737,271.91 259.977,273.572 259.977,275.274C259.977,279.145 258.77,282.77 256.358,286.148C253.945,289.526 250.596,292.496 246.31,295.059C242.024,297.621 237.056,299.624 231.407,301.066C225.757,302.509 219.696,303.23 213.222,303.23ZM190.788,276.242C195.044,276.242 198.281,275.969 200.499,275.422C202.717,274.876 204.238,273.886 205.062,272.452C205.886,271.018 206.298,268.966 206.298,266.296C206.298,264.934 205.849,263.886 204.95,263.151C204.051,262.416 202.395,261.906 199.982,261.619C197.569,261.332 194.07,261.189 189.485,261.189C185.468,261.189 182.284,261.265 179.931,261.417C177.579,261.57 175.908,261.919 174.919,262.466C173.93,263.012 173.435,263.886 173.435,265.087C173.435,266.18 173.54,267.147 173.75,267.99C173.959,268.832 174.214,269.719 174.514,270.651C175.083,272.264 175.833,273.469 176.762,274.266C177.691,275.064 179.227,275.592 181.37,275.852C183.513,276.112 186.652,276.242 190.788,276.242ZM191.553,273.393C189.994,273.393 188.66,272.999 187.551,272.21C186.442,271.422 185.888,270.472 185.888,269.361C185.888,268.25 186.442,267.295 187.551,266.498C188.66,265.7 189.994,265.302 191.553,265.302C193.111,265.302 194.445,265.7 195.554,266.498C196.663,267.295 197.217,268.25 197.217,269.361C197.217,270.454 196.67,271.399 195.576,272.197C194.482,272.994 193.141,273.393 191.553,273.393ZM190.474,278.393C186.787,278.393 183.678,278.258 181.145,277.989C178.613,277.721 176.574,277.174 175.031,276.35C173.487,275.525 172.356,274.28 171.637,272.613L170.018,268.823C169.539,267.712 169.179,266.977 168.939,266.619C168.7,266.26 168.325,266.001 167.815,265.839L165.568,265.14L165.568,260.786C169.254,260.194 173.038,259.755 176.919,259.469C180.8,259.182 184.929,259.038 189.305,259.038C195.389,259.038 199.997,259.357 203.129,259.993C206.261,260.629 208.336,261.718 209.355,263.259C210.884,263.115 212.173,263.044 213.222,263.044C214.271,263.044 215.559,263.115 217.088,263.259C218.107,261.718 220.19,260.629 223.337,259.993C226.484,259.357 231.085,259.038 237.139,259.038C241.515,259.038 245.643,259.182 249.524,259.469C253.406,259.755 257.189,260.194 260.876,260.786L260.876,265.14L258.628,265.839C258.119,266.001 257.744,266.26 257.504,266.619C257.264,266.977 256.905,267.712 256.425,268.823L254.807,272.613C254.087,274.28 252.956,275.525 251.413,276.35C249.869,277.174 247.838,277.721 245.321,277.989C242.803,278.258 239.686,278.393 235.97,278.393C231.684,278.393 228.207,278.124 225.54,277.586C222.872,277.049 220.864,276.188 219.516,275.006C218.167,273.823 217.328,272.273 216.998,270.355L216.189,265.463C215.799,265.373 215.327,265.306 214.773,265.261C214.218,265.217 213.701,265.194 213.222,265.194C212.742,265.194 212.225,265.217 211.671,265.261C211.116,265.306 210.644,265.373 210.255,265.463L209.445,270.355C209.146,272.273 208.314,273.823 206.95,275.006C205.587,276.188 203.571,277.049 200.904,277.586C198.236,278.124 194.759,278.393 190.474,278.393ZM234.891,273.393C233.332,273.393 231.999,272.994 230.89,272.197C229.781,271.399 229.226,270.454 229.226,269.361C229.226,268.25 229.781,267.295 230.89,266.498C231.999,265.7 233.332,265.302 234.891,265.302C236.449,265.302 237.783,265.7 238.892,266.498C240.001,267.295 240.555,268.25 240.555,269.361C240.555,270.472 240.001,271.422 238.892,272.21C237.783,272.999 236.449,273.393 234.891,273.393ZM235.655,276.242C239.821,276.242 242.968,276.112 245.096,275.852C247.224,275.592 248.76,275.064 249.704,274.266C250.648,273.469 251.39,272.264 251.93,270.651C252.259,269.719 252.521,268.832 252.716,267.99C252.911,267.147 253.008,266.18 253.008,265.087C253.008,263.886 252.514,263.012 251.525,262.466C250.536,261.919 248.872,261.57 246.535,261.417C244.197,261.265 241.005,261.189 236.959,261.189C232.403,261.189 228.912,261.332 226.484,261.619C224.056,261.906 222.393,262.416 221.494,263.151C220.595,263.886 220.145,264.934 220.145,266.296C220.145,268.966 220.557,271.018 221.381,272.452C222.206,273.886 223.734,274.876 225.967,275.422C228.2,275.969 231.429,276.242 235.655,276.242ZM173.03,260.947C175.758,258.223 179.174,255.84 183.281,253.797C187.387,251.754 191.98,250.163 197.06,249.025C202.14,247.887 207.527,247.318 213.222,247.318C218.916,247.318 224.311,247.887 229.406,249.025C234.501,250.163 239.094,251.754 243.185,253.797C247.276,255.84 250.686,258.223 253.413,260.947L248.872,260.705C246.295,258.429 243.17,256.453 239.499,254.778C235.828,253.102 231.766,251.799 227.316,250.867C222.865,249.935 218.167,249.469 213.222,249.469C208.276,249.469 203.579,249.935 199.128,250.867C194.677,251.799 190.623,253.102 186.967,254.778C183.311,256.453 180.179,258.429 177.571,260.705L173.03,260.947ZM213.222,292.559C217.298,292.559 221.134,292.147 224.731,291.322C220.834,290.05 216.998,289.414 213.222,289.414C209.445,289.414 205.609,290.05 201.713,291.322C205.309,292.147 209.146,292.559 213.222,292.559ZM213.222,294.037C209.475,294.037 205.781,293.679 202.14,292.962C198.498,292.245 195.202,291.286 192.249,290.086C189.297,288.885 186.937,287.545 185.169,286.067C183.4,284.589 182.516,283.097 182.516,281.591C182.516,280.857 182.786,280.332 183.325,280.019C183.865,279.705 184.599,279.548 185.528,279.548C186.218,279.548 186.982,279.589 187.821,279.669C188.66,279.75 189.619,279.862 190.698,280.005C193.576,280.4 197.015,280.74 201.016,281.027C205.017,281.314 209.086,281.457 213.222,281.457C217.358,281.457 221.426,281.314 225.428,281.027C229.429,280.74 232.883,280.4 235.79,280.005C236.869,279.862 237.828,279.75 238.667,279.669C239.506,279.589 240.256,279.548 240.915,279.548C241.874,279.548 242.623,279.705 243.163,280.019C243.702,280.332 243.972,280.857 243.972,281.591C243.972,283.097 243.088,284.589 241.32,286.067C239.551,287.545 237.184,288.885 234.217,290.086C231.249,291.286 227.945,292.245 224.304,292.962C220.662,293.679 216.968,294.037 213.222,294.037ZM213.222,285.086C216.039,285.086 219.051,285.019 222.258,284.884C225.465,284.75 228.672,284.535 231.879,284.239C235.086,283.943 238.083,283.572 240.87,283.124L240.87,281.645C240.87,281.394 240.728,281.237 240.443,281.175C240.158,281.112 239.821,281.108 239.432,281.161C237.034,281.502 234.306,281.806 231.249,282.075C228.192,282.344 225.098,282.555 221.966,282.707C218.834,282.859 215.919,282.935 213.222,282.935C210.554,282.935 207.647,282.859 204.5,282.707C201.353,282.555 198.259,282.344 195.217,282.075C192.174,281.806 189.44,281.502 187.012,281.161C186.622,281.108 186.285,281.112 186,281.175C185.716,281.237 185.573,281.394 185.573,281.645L185.573,283.124C188.361,283.572 191.358,283.943 194.565,284.239C197.772,284.535 200.986,284.75 204.208,284.884C207.43,285.019 210.434,285.086 213.222,285.086Z" style="fill-rule:nonzero;"/>
            </g>
        </g>
    </g>
</svg>
